<?xml version="1.0" encoding="iso-8859-1"?>
<!-- Generator: Adobe Illustrator 19.0.0, SVG Export Plug-In . SVG Version: 6.00 Build 0)  -->
<svg version="1.1" id="Capa_1" xmlns="http://www.w3.org/2000/svg" xmlns:xlink="http://www.w3.org/1999/xlink" x="0px" y="0px"
	 viewBox="0 0 512 512" style="enable-background:new 0 0 512 512;" xml:space="preserve">
<g>
	<g>
		<path d="M497,346h-15V121c0-24.813-20.187-45-45-45H75c-24.813,0-45,20.187-45,45v225H15c-8.284,0-15,6.716-15,15
			c0,41.355,33.645,75,75,75h362c41.355,0,75-33.645,75-75C512,352.716,505.284,346,497,346z M60,121c0-8.271,6.729-15,15-15h362
			c8.271,0,15,6.729,15,15v225H60V121z M437,406H256H75c-19.556,0-36.239-12.539-42.43-30H241v15c0,8.284,6.716,15,15,15
			s15-6.716,15-15v-15.1h208.43C473.239,393.361,456.556,406,437,406z"/>
	</g>
</g>
<g>
</g>
<g>
</g>
<g>
</g>
<g>
</g>
<g>
</g>
<g>
</g>
<g>
</g>
<g>
</g>
<g>
</g>
<g>
</g>
<g>
</g>
<g>
</g>
<g>
</g>
<g>
</g>
<g>
</g>
</svg>
