<?xml version="1.0" encoding="utf-8"?>
<!-- Generator: Adobe Illustrator 22.0.1, SVG Export Plug-In . SVG Version: 6.00 Build 0)  -->
<svg version="1.1" id="Layer_1" xmlns="http://www.w3.org/2000/svg" xmlns:xlink="http://www.w3.org/1999/xlink" x="0px" y="0px"
	 viewBox="0 0 857.1 237.6" style="enable-background:new 0 0 857.1 237.6;" xml:space="preserve">
<style type="text/css">
	.st0{fill:#265BD1;}
	.st1{fill:#141414;}
	.st2{fill:#FFFFFF;}
</style>
<g>
	<g>
		<path class="st0" d="M182.2,119.8c0,9.8-2.5,19-7,27l14.4,14.4c7.8-11.9,12.4-26.2,12.4-41.4c0-14.4-4-27.8-11-39.3
			c-0.7-1.1-2.2-1.2-3.1-0.3l-11.5,11.5c-0.6,0.6-0.7,1.5-0.3,2.3C180,101.7,182.2,110.5,182.2,119.8z"/>
		<path class="st0" d="M221.9,119.8c0,20.2-6.3,39-17.1,54.4c-0.5,0.8-0.5,1.8,0.2,2.5l11.3,11.3c0.9,0.9,2.3,0.8,3-0.2
			c14-19.1,22.2-42.6,22.2-68c0-25.3-8.3-48.9-22.2-68c-0.7-1-2.2-1.1-3-0.2L205,63c-0.7,0.7-0.8,1.7-0.2,2.5
			C215.6,80.9,221.9,99.6,221.9,119.8z"/>
		
			<ellipse transform="matrix(0.7071 -0.7071 0.7071 0.7071 -39.2417 144.9379)" class="st0" cx="155.3" cy="119.8" rx="9.8" ry="9.8"/>
		<path class="st1" d="M155.3,141.7c-7.1,9.3-18.5,15.1-31.3,14.3c-15.5-1-28.5-11.9-32.6-26.4H14.2c-1.6,0-3-1.3-3.1-2.8
			c-0.3-4.7-0.2-9.4,0.1-14c0.1-1.6,1.5-2.8,3-2.8h77.1c4.3-15.3,18.3-26.5,35-26.5c11.8,0,22.3,5.7,29,14.4c1.3,1.7,0.1,4.2-2,4.2
			h-23.8c-6.5,0-11.7,5.3-11.7,11.7v12.1c0,6.5,5.2,11.7,11.7,11.7h23.7C155.3,137.6,156.5,140,155.3,141.7z"/>
		<path class="st1" d="M175.2,174.7c0.8,0.8,0.8,2.2-0.1,2.9c-12.5,10.6-28.4,17.3-45.9,17.9c-31.3,1.2-59.5-17.6-71.9-44.7
			c-0.3-0.7,0.2-1.5,0.9-1.5l18.8,0c1,0,1.9,0.5,2.4,1.3c7.6,11.6,19.6,20.3,33.5,23.6c18.2,4.3,35.5-0.6,48.2-10.9
			c0.8-0.6,1.9-0.6,2.7,0.1L175.2,174.7z"/>
		<path class="st1" d="M33.3,90.2l-17.2,0c-0.7,0-1.2-0.7-1-1.3C28.7,40.3,73.4,4.5,126.3,4.5c29.5,0,56.5,11.1,76.9,29.4
			c0.9,0.8,0.9,2.1,0.1,2.9L192.1,48c-0.7,0.7-1.9,0.8-2.7,0.1c-17.5-15.4-40.6-24.6-65.8-23.9c-40,1.1-74.6,27.7-87.5,64
			C35.7,89.4,34.6,90.2,33.3,90.2z"/>
		<path class="st1" d="M203.2,202.7c0.9,0.8,0.8,2.2-0.1,2.9c-22.5,20.3-53,31.8-86.2,29.1c-48.3-3.8-89.2-38.3-101.9-84.1
			c-0.2-0.6,0.3-1.3,1-1.3l17.2,0c1.3,0,2.3,0.8,2.8,2c13.1,37.2,48.6,64.1,90.3,64.1c24.1,0,46.3-9.1,63.1-23.9
			c0.8-0.7,2-0.6,2.7,0.1L203.2,202.7z"/>
		<path class="st1" d="M175.2,64.9L164,76.1c-0.7,0.7-1.9,0.8-2.7,0.1c-9.6-7.8-21.8-12.4-35-12.4c-19.5,0-36.7,10-46.7,25.1
			c-0.5,0.8-1.4,1.3-2.4,1.3h-19c-0.7,0-1.3-0.8-0.9-1.5c11.9-26.4,38.3-44.7,69.1-44.7c18.6,0,35.7,6.7,48.8,17.9
			C176,62.8,176,64.1,175.2,64.9z"/>
	</g>
	<g>
		<path class="st0" d="M824.3,201.4H323.8c-14.7,0-26.6-11.9-26.6-26.6v0c0-14.7,11.9-26.6,26.6-26.6h500.5
			c14.7,0,26.6,11.9,26.6,26.6v0C850.9,189.5,839,201.4,824.3,201.4z"/>
		<g>
			<path class="st0" d="M684.5,38.3c3.4,0,6.4,0.5,9.1,1.4c2.6,0.9,4.9,2.2,6.7,3.9c1.8,1.7,3.3,3.7,4.3,6c1,2.3,1.7,4.8,1.9,7.5
				l-13.9,4.1c0-1.2-0.3-2.4-0.7-3.5c-0.4-1.1-1-2.1-1.8-3c-0.8-0.9-1.9-1.6-3.2-2.2c-1.3-0.6-2.8-0.9-4.6-0.9c-2.1,0-4,0.4-5.6,1.1
				c-1.6,0.7-3,1.7-4.2,2.9c-1.1,1.2-2.1,2.5-2.8,3.9c-0.7,1.5-1.2,2.9-1.4,4.4l-5.3,33.7c-0.3,1.8-0.3,3.5-0.1,5.1
				c0.2,1.6,0.8,3,1.6,4.2c0.8,1.2,1.9,2.2,3.3,2.9c1.4,0.7,3.1,1.1,5.1,1.1c4,0,7.3-1.2,9.7-3.5c2.4-2.3,3.9-5.1,4.4-8.4l1.6-10
				h-10.1c-1.4,0-2.3-1.1-2.1-2.5l1.1-7c0.2-1.4,1.5-2.5,2.9-2.5h21.4c1.4,0,2.3,1.1,2.1,2.5l-2.8,17.5c-0.6,4-1.8,7.7-3.6,11
				c-1.7,3.3-3.9,6.1-6.5,8.5c-2.6,2.3-5.6,4.2-9.1,5.5c-3.4,1.3-7.2,1.9-11.2,1.9c-4.4,0-8.1-0.7-11.1-2.1s-5.4-3.3-7.2-5.7
				c-1.8-2.4-2.9-5.3-3.4-8.5c-0.5-3.3-0.5-6.8,0.1-10.6l5.2-32.8c0.5-3.3,1.5-6.6,3.1-9.7c1.5-3.2,3.5-5.9,6.1-8.4
				c2.5-2.4,5.5-4.4,9-5.8C676.1,39,680,38.3,684.5,38.3z"/>
			<path class="st0" d="M763.9,99.3c-1.2,7.7-4.5,13.7-9.9,18.1c-5.4,4.4-12.4,6.6-20.9,6.6c-6.8,0-12.2-1.3-16.2-4
				c-3.4-2.2-6-5-7.8-8.4c-0.6-1.1,0-2.7,1.2-3.5l10.5-6.8c1.4,2.9,3.3,5.2,5.6,7c2.3,1.7,5.3,2.6,9.1,2.6c4.4,0,7.8-1.1,9.9-3.2
				c2.2-2.1,3.5-4.8,4-8c0.3-1.9,0.2-3.6-0.3-5c-0.5-1.4-1.3-2.6-2.5-3.6c-1.1-1-2.6-1.9-4.3-2.6c-1.7-0.7-3.7-1.4-5.7-2.1
				c-3.8-1.3-7.1-2.7-9.7-4.1c-2.6-1.5-4.7-3.1-6.2-5c-1.5-1.9-2.5-4.1-2.9-6.6c-0.4-2.5-0.4-5.3,0.1-8.5c0.6-3.5,1.7-6.7,3.3-9.7
				c1.7-3,3.8-5.5,6.4-7.7c2.6-2.1,5.6-3.8,8.9-5c3.3-1.2,6.9-1.8,10.8-1.8c6.3,0,11.3,1,14.9,3.1c3,1.8,5.2,4.1,7.1,6.8
				c1.2,1.7-1.1,3.3-1.1,3.3l-9.9,7.3c-1.5-2.6-3.3-4.5-5.4-5.7c-2.2-1.2-4.8-1.8-7.8-1.8c-3.6,0-6.6,1-8.8,3
				c-2.3,2-3.6,4.5-4.1,7.5c-0.3,1.7-0.1,3.2,0.6,4.4c0.7,1.3,1.7,2.4,3.1,3.3c1.4,1,3.1,1.8,5,2.6c2,0.8,4.1,1.5,6.3,2.2
				c3.8,1.2,6.8,2.6,9.2,4.2c2.4,1.6,4.2,3.4,5.5,5.4c1.3,2,2.1,4.3,2.4,6.8C764.5,93.3,764.4,96.1,763.9,99.3z"/>
			<path class="st0" d="M826.7,123.3c-1.4,0-2.3-1.1-2.1-2.5l7.4-46.9h-0.5l-8.7,15.8l-10.9,18.4h-9.8l-5.2-19.1l-3.6-15.3l-0.5,0.1
				l-7.4,46.9c-0.2,1.4-1.5,2.5-2.9,2.5h-8.8c-1.4,0-2.3-1.1-2.1-2.5l12.6-79.4c0.2-1.4,1.5-2.5,2.9-2.5h9.1c1,0,1.8,0.6,2.1,1.5
				l7.1,26.1l5,20.4h0.5l11.4-20.5l15.1-26c0.5-0.9,1.5-1.5,2.6-1.5h9.2c1.4,0,2.3,1.1,2.1,2.5l-12.6,79.4c-0.2,1.4-1.5,2.5-2.9,2.5
				H826.7z"/>
			<path class="st0" d="M607.9,79.3c-1.4,0-2.5,1.1-2.5,2.5v7c0,1.4,1.1,2.5,2.5,2.5H633c1,0,1.8-0.7,2-1.7l1.3-8
				c0.2-1.2-0.7-2.3-2-2.3H607.9z"/>
			<path class="st1" d="M329.6,120.8c0,1.4-1.1,2.5-2.5,2.5h-8.8c-1.4,0-2.5-1.1-2.5-2.5V51.5h-16.1c-1.4,0-2.5-1.1-2.5-2.5v-7.6
				c0-1.4,1.1-2.5,2.5-2.5h46.1c1.4,0,2.5,1.1,2.5,2.5V49c0,1.4-1.1,2.5-2.5,2.5h-16.2V120.8z"/>
			<path class="st1" d="M356.7,120.8V41.4c0-1.4,1.1-2.5,2.5-2.5h41.9c1.4,0,2.5,1.1,2.5,2.5v7.8c0,1.4-1.1,2.5-2.5,2.5h-30.6v22.6
				h26c1.4,0,2.5,1.1,2.5,2.5v7.6c0,1.4-1.1,2.5-2.5,2.5h-26v23.3h30.6c1.4,0,2.5,1.1,2.5,2.5v8.1c0,1.4-1.1,2.5-2.5,2.5h-41.9
				C357.8,123.3,356.7,122.2,356.7,120.8z"/>
			<path class="st1" d="M450.7,121.6l-11.4-31.9c-0.4-1-1.3-1.7-2.4-1.7h-9v32.7c0,1.4-1.1,2.5-2.5,2.5h-8.8c-1.4,0-2.5-1.1-2.5-2.5
				V41.4c0-1.4,1.1-2.5,2.5-2.5h24.7c3.5,0,6.7,0.5,9.7,1.5c3,1,5.6,2.5,7.7,4.6c2.1,2,3.8,4.5,5,7.6c1.2,3,1.8,6.6,1.8,10.6
				c0,5.3-1.1,9.9-3.4,13.8c-1.9,3.3-4.6,5.9-8.1,7.9c-1.1,0.6-1.7,1.9-1.2,3.1l12.3,32c0.6,1.6-0.6,3.4-2.3,3.4h-9.7
				C452,123.3,451.1,122.6,450.7,121.6z M451.9,63.1c0-4-1-6.9-3-8.8c-2-1.9-4.9-2.9-8.7-2.9h-9.7c-1.4,0-2.5,1.1-2.5,2.5v19.1
				c0,1.4,1.1,2.5,2.5,2.5h9.6c3.6,0,6.5-1.1,8.7-3.2C450.8,70.4,451.9,67.2,451.9,63.1z"/>
			<path class="st1" d="M514.8,121.6l-11.4-31.9c-0.4-1-1.3-1.7-2.4-1.7h-9v32.7c0,1.4-1.1,2.5-2.5,2.5h-8.8c-1.4,0-2.5-1.1-2.5-2.5
				V41.4c0-1.4,1.1-2.5,2.5-2.5h24.7c3.5,0,6.7,0.5,9.7,1.5c3,1,5.6,2.5,7.7,4.6c2.1,2,3.8,4.5,5,7.6c1.2,3,1.8,6.6,1.8,10.6
				c0,5.3-1.1,9.9-3.4,13.8c-1.9,3.3-4.6,5.9-8.1,7.9c-1.1,0.6-1.7,1.9-1.2,3.1l12.3,32c0.6,1.6-0.6,3.4-2.3,3.4h-9.7
				C516.1,123.3,515.1,122.6,514.8,121.6z M516,63.1c0-4-1-6.9-3-8.8c-2-1.9-4.9-2.9-8.7-2.9h-9.7c-1.4,0-2.5,1.1-2.5,2.5v19.1
				c0,1.4,1.1,2.5,2.5,2.5h9.6c3.6,0,6.5-1.1,8.7-3.2C514.9,70.4,516,67.2,516,63.1z"/>
			<path class="st1" d="M578.1,105.1h-23.4c-0.2,0.7-0.5,1.9-1,3.6c-0.5,1.7-1,3.5-1.5,5.5c-0.5,1.9-1,3.8-1.5,5.5
				c-0.4,1.7-0.8,2.9-1,3.6h-11.1c-1.7,0-2.9-1.6-2.4-3.2l22.9-79.4c0.3-1.1,1.3-1.8,2.4-1.8h9.6c1.1,0,2.1,0.7,2.4,1.8l23,79.4
				c0.5,1.6-0.7,3.2-2.4,3.2h-9.4c-1.1,0-2.1-0.8-2.4-1.9L578.1,105.1z M562.1,75.7l-4.4,17h17.2l-4.2-16.9
				c-0.2-0.7-0.4-1.9-0.8-3.6c-0.4-1.7-0.8-3.5-1.2-5.3c-0.4-1.9-0.9-3.6-1.3-5.3c-0.4-1.7-0.6-2.9-0.7-3.6h-0.6L562.1,75.7z"/>
		</g>
		<g>
			<path class="st2" d="M337.4,171.9v-0.4c0-1-0.1-1.8-0.4-2.2c-0.3-0.4-0.8-0.6-1.4-0.6c-0.7,0-1.2,0.2-1.5,0.6
				c-0.3,0.4-0.4,1.1-0.4,2.2v6.5c0,1.1,0.1,1.8,0.4,2.2c0.3,0.4,0.8,0.6,1.4,0.6c0.6,0,1.1-0.2,1.4-0.7c0.3-0.4,0.5-1.2,0.5-2.2
				v-0.9h3.2v0.8c0,1.1-0.2,2-0.5,2.8c-0.3,0.8-0.8,1.5-1.6,2s-1.7,0.7-3,0.7c-1.9,0-3.2-0.5-4-1.5c-0.8-1-1.1-2.3-1.1-4v-6
				c0-1.9,0.4-3.3,1.3-4.3c0.9-0.9,2.1-1.4,3.9-1.4c1,0,1.9,0.2,2.7,0.6c0.7,0.4,1.3,1,1.7,1.7c0.4,0.7,0.6,1.6,0.6,2.6v0.8H337.4z"
				/>
			<path class="st2" d="M343.9,183.1v-16.5h8.8v2.7H347v3.8h5.2v2.5H347v5.1h5.7v2.5H343.9z"/>
			<path class="st2" d="M356.1,183.1v-16.5h5.9c0.9,0,1.6,0.2,2.3,0.6c0.7,0.4,1.2,1,1.5,1.7c0.4,0.7,0.5,1.5,0.5,2.4
				c0,0.9-0.2,1.7-0.5,2.5c-0.4,0.8-0.9,1.4-1.6,1.8c-0.7,0.4-1.4,0.7-2.3,0.7h-2.7v6.7H356.1z M360.8,169h-1.6v4.9h1.6
				c1.6,0,2.3-0.8,2.3-2.5C363.1,169.8,362.4,169,360.8,169z"/>
			<path class="st2" d="M376,183.1h-6.3v-16.5h5.8c0.9,0,1.7,0.2,2.3,0.5c0.6,0.4,1.1,0.9,1.3,1.5c0.3,0.6,0.4,1.3,0.4,2
				c0,0.5-0.1,1.1-0.3,1.6c-0.2,0.5-0.4,1-0.8,1.3c-0.3,0.4-0.7,0.6-1.2,0.7c0.8,0.3,1.4,0.8,1.8,1.4c0.4,0.6,0.6,1.5,0.6,2.5
				c0,1-0.1,1.8-0.4,2.6c-0.3,0.7-0.7,1.3-1.3,1.7C377.5,182.9,376.8,183.1,376,183.1z M372.8,168.9v4.3h1.6c1.3,0,1.9-0.7,1.9-2.2
				c0-0.7-0.1-1.3-0.4-1.6c-0.3-0.3-0.8-0.5-1.5-0.5H372.8z M372.8,180.7h2c0.6,0,1-0.2,1.3-0.6c0.3-0.4,0.4-1.1,0.4-2
				c0-1.7-0.6-2.5-1.7-2.5h-2V180.7z"/>
			<path class="st2" d="M390.7,183.1v-6.2c0-2.5,0.1-4.4,0.4-5.7l-4.6,12h-3.4v-16.5h2.9v6.2c0,0.7,0,1.5,0,2.2
				c0,0.7-0.1,1.4-0.1,2.1c-0.1,0.6-0.1,1.1-0.2,1.5l4.6-12h3.4v16.5H390.7z"/>
			<path class="st2" d="M404,171.9v-0.4c0-1-0.1-1.8-0.4-2.2c-0.3-0.4-0.8-0.6-1.4-0.6c-0.7,0-1.2,0.2-1.5,0.6
				c-0.3,0.4-0.4,1.1-0.4,2.2v6.5c0,1.1,0.1,1.8,0.4,2.2c0.3,0.4,0.8,0.6,1.4,0.6c0.6,0,1.1-0.2,1.4-0.7c0.3-0.4,0.5-1.2,0.5-2.2
				v-0.9h3.2v0.8c0,1.1-0.2,2-0.5,2.8c-0.3,0.8-0.8,1.5-1.6,2c-0.7,0.5-1.7,0.7-3,0.7c-1.9,0-3.2-0.5-4-1.5c-0.8-1-1.1-2.3-1.1-4v-6
				c0-1.9,0.4-3.3,1.3-4.3c0.9-0.9,2.1-1.4,3.9-1.4c1,0,1.9,0.2,2.7,0.6c0.7,0.4,1.3,1,1.7,1.7c0.4,0.7,0.6,1.6,0.6,2.6v0.8H404z"/>
			<path class="st2" d="M410.5,183.1v-16.5h3.1v6.4h4.1v-6.4h3.1v16.5h-3.1v-7.6h-4.1v7.6H410.5z"/>
			<path class="st2" d="M424.8,166.6h3.1v6.6h2.6c0.6,0,1.2,0.1,1.7,0.4c0.5,0.3,1,0.6,1.3,1c0.4,0.4,0.7,0.9,0.9,1.5
				c0.2,0.6,0.3,1.1,0.3,1.7c0,1.6-0.3,2.9-1,3.9c-0.7,1-1.7,1.4-2.9,1.4h-6V166.6z M427.9,175.6v5.1h1.8c0.6,0,1.1-0.2,1.4-0.6
				c0.3-0.4,0.5-1.1,0.5-2c0-0.8-0.2-1.4-0.5-1.9s-0.8-0.7-1.4-0.7H427.9z M437.1,183.1v-16.5h3.1v16.5H437.1z"/>
			<path class="st2" d="M451.6,183.1v-5.8c0-2.8,0.1-4.8,0.4-6.2l-4.6,12H444v-16.5h2.9v5.8c0,0.9,0,1.7,0,2.3
				c0,0.6-0.1,1.3-0.1,1.9c-0.1,0.7-0.2,1.3-0.3,1.9l4.6-12h3.4v16.5H451.6z M447.5,162.1c0,0.6,0.1,1.1,0.4,1.4
				c0.3,0.3,0.7,0.5,1.2,0.5c0.5,0,0.9-0.2,1.2-0.5c0.3-0.3,0.4-0.8,0.4-1.4h1.6c0,2.3-1.1,3.4-3.3,3.4c-2.1,0-3.2-1.1-3.2-3.4
				H447.5z"/>
			<path class="st2" d="M468.2,180.6h4.1v-14h3.1v14h1v5.8h-3v-3.3h-8.4v-16.5h3.1V180.6z"/>
			<path class="st2" d="M479.7,183.1v-16.5h8.8v2.7h-5.7v3.8h5.2v2.5h-5.2v5.1h5.7v2.5H479.7z"/>
			<path class="st2" d="M491.8,183.1v-16.5h3.1v6.4h4.1v-6.4h3.1v16.5h-3.1v-7.6H495v7.6H491.8z"/>
			<path class="st2" d="M515.7,166.6v2.7h-3.6v13.9h-3.1v-13.9h-3.7v-2.7H515.7z"/>
			<path class="st2" d="M518.6,183.1v-16.5h5.9c0.9,0,1.6,0.2,2.3,0.6c0.7,0.4,1.2,1,1.5,1.7c0.4,0.7,0.5,1.5,0.5,2.4
				c0,0.9-0.2,1.7-0.5,2.5c-0.4,0.8-0.9,1.4-1.6,1.8c-0.7,0.4-1.4,0.7-2.3,0.7h-2.7v6.7H518.6z M523.3,169h-1.6v4.9h1.6
				c1.6,0,2.3-0.8,2.3-2.5C525.6,169.8,524.8,169,523.3,169z"/>
			<path class="st2" d="M557.1,175.5h-0.7v-2.4h0.7c0.6,0,1.1-0.2,1.5-0.5c0.4-0.4,0.6-0.9,0.6-1.6c0-0.6-0.1-1.2-0.4-1.6
				c-0.3-0.4-0.7-0.7-1.3-0.7c-0.6,0-1.1,0.2-1.4,0.7s-0.5,1.1-0.5,1.8h-3c0-1,0.2-1.8,0.6-2.6c0.4-0.8,1-1.4,1.7-1.8
				c0.7-0.4,1.6-0.7,2.6-0.7c0.8,0,1.6,0.1,2.4,0.4c0.8,0.3,1.4,0.8,1.9,1.4c0.5,0.7,0.7,1.5,0.7,2.5c0,0.6-0.1,1.1-0.3,1.6
				c-0.2,0.5-0.5,0.9-0.9,1.3c-0.4,0.3-0.8,0.6-1.3,0.7c0.9,0.2,1.5,0.7,2,1.4c0.5,0.7,0.7,1.7,0.7,2.9c0,1.1-0.2,2-0.6,2.7
				c-0.4,0.7-1,1.3-1.7,1.6c-0.8,0.4-1.7,0.5-2.8,0.5c-1,0-1.8-0.2-2.6-0.5c-0.8-0.3-1.4-0.8-1.9-1.6c-0.5-0.7-0.7-1.6-0.7-2.8h3
				c0,1.5,0.7,2.3,2,2.3c1.4,0,2.1-0.9,2.1-2.7c0-0.9-0.2-1.6-0.6-2C558.4,175.7,557.8,175.5,557.1,175.5z"/>
			<path class="st2" d="M564.8,183.1l4.2-16.5h4.2l3.7,16.5h-3.4l-0.8-4.3h-3.5l-1,4.3H564.8z M569.6,176.3h2.8l-1.3-7.7
				L569.6,176.3z"/>
			<path class="st2" d="M579.6,183.1v-16.5H590v16.5h-3.1v-14h-4.1v14H579.6z"/>
			<path class="st2" d="M600.8,183.1v-7.2c-0.8,0.2-1.6,0.2-2.7,0.2c-0.9,0-1.6-0.2-2.3-0.6c-0.7-0.4-1.2-0.9-1.5-1.6
				c-0.4-0.7-0.5-1.5-0.5-2.4v-4.9h3.1v4.5c0,1.6,0.8,2.5,2.4,2.5c0.7,0,1.2-0.1,1.6-0.2v-6.8h3.1v16.5H600.8z"/>
			<path class="st2" d="M606.8,183.1l4.2-16.5h4.2l3.7,16.5h-3.4l-0.8-4.3h-3.5l-1,4.3H606.8z M611.5,176.3h2.8l-1.3-7.7
				L611.5,176.3z"/>
			<path class="st2" d="M628.1,171.9v-0.4c0-1-0.1-1.8-0.4-2.2c-0.3-0.4-0.8-0.6-1.4-0.6c-0.7,0-1.2,0.2-1.5,0.6
				c-0.3,0.4-0.4,1.1-0.4,2.2v6.5c0,1.1,0.1,1.8,0.4,2.2c0.3,0.4,0.8,0.6,1.4,0.6c0.6,0,1.1-0.2,1.4-0.7c0.3-0.4,0.5-1.2,0.5-2.2
				v-0.9h3.2v0.8c0,1.1-0.2,2-0.5,2.8c-0.3,0.8-0.8,1.5-1.6,2c-0.7,0.5-1.7,0.7-3,0.7c-1.9,0-3.2-0.5-4-1.5c-0.8-1-1.1-2.3-1.1-4v-6
				c0-1.9,0.4-3.3,1.3-4.3c0.9-0.9,2.1-1.4,3.9-1.4c1,0,1.9,0.2,2.7,0.6c0.7,0.4,1.3,1,1.7,1.7c0.4,0.7,0.6,1.6,0.6,2.6v0.8H628.1z"
				/>
			<path class="st2" d="M644.3,166.6v2.7h-3.6v13.9h-3.1v-13.9h-3.7v-2.7H644.3z"/>
			<path class="st2" d="M654.8,183.1v-6.2c0-2.5,0.1-4.4,0.4-5.7l-4.6,12h-3.4v-16.5h2.9v6.2c0,0.7,0,1.5,0,2.2
				c0,0.7-0.1,1.4-0.1,2.1c-0.1,0.6-0.1,1.1-0.2,1.5l4.6-12h3.4v16.5H654.8z"/>
			<path class="st2" d="M681,183.1l4.2-16.5h4.2l3.7,16.5h-3.4l-0.8-4.3h-3.5l-1,4.3H681z M685.8,176.3h2.8l-1.3-7.7L685.8,176.3z"
				/>
			<path class="st2" d="M695.7,183.1v-16.5h3.1v7.2l3.8-7.2h3.5l-4.2,7.2l4.3,9.3h-3.5l-2.7-6.6l-1.2,1.6v5H695.7z"/>
			<path class="st2" d="M716,171.9v-0.4c0-1-0.1-1.8-0.4-2.2c-0.3-0.4-0.8-0.6-1.4-0.6c-0.7,0-1.2,0.2-1.5,0.6
				c-0.3,0.4-0.4,1.1-0.4,2.2v6.5c0,1.1,0.1,1.8,0.4,2.2c0.3,0.4,0.8,0.6,1.4,0.6c0.6,0,1.1-0.2,1.4-0.7c0.3-0.4,0.5-1.2,0.5-2.2
				v-0.9h3.2v0.8c0,1.1-0.2,2-0.5,2.8c-0.3,0.8-0.8,1.5-1.6,2s-1.7,0.7-3,0.7c-1.9,0-3.2-0.5-4-1.5c-0.8-1-1.1-2.3-1.1-4v-6
				c0-1.9,0.4-3.3,1.3-4.3c0.9-0.9,2.1-1.4,3.9-1.4c1,0,1.9,0.2,2.7,0.6c0.7,0.4,1.3,1,1.7,1.7c0.4,0.7,0.6,1.6,0.6,2.6v0.8H716z"/>
			<path class="st2" d="M722.6,183.1v-16.5h8.8v2.7h-5.7v3.8h5.2v2.5h-5.2v5.1h5.7v2.5H722.6z"/>
			<path class="st2" d="M741.4,171.9v-0.4c0-1-0.1-1.8-0.4-2.2c-0.3-0.4-0.8-0.6-1.4-0.6c-0.7,0-1.2,0.2-1.5,0.6
				c-0.3,0.4-0.4,1.1-0.4,2.2v6.5c0,1.1,0.1,1.8,0.4,2.2c0.3,0.4,0.8,0.6,1.4,0.6c0.6,0,1.1-0.2,1.4-0.7c0.3-0.4,0.5-1.2,0.5-2.2
				v-0.9h3.2v0.8c0,1.1-0.2,2-0.5,2.8c-0.3,0.8-0.8,1.5-1.6,2s-1.7,0.7-3,0.7c-1.9,0-3.2-0.5-4-1.5c-0.8-1-1.1-2.3-1.1-4v-6
				c0-1.9,0.4-3.3,1.3-4.3c0.9-0.9,2.1-1.4,3.9-1.4c1,0,1.9,0.2,2.7,0.6c0.7,0.4,1.3,1,1.7,1.7c0.4,0.7,0.6,1.6,0.6,2.6v0.8H741.4z"
				/>
			<path class="st2" d="M754.5,171.9v-0.4c0-1-0.1-1.8-0.4-2.2c-0.3-0.4-0.8-0.6-1.4-0.6c-0.7,0-1.2,0.2-1.5,0.6
				c-0.3,0.4-0.4,1.1-0.4,2.2v6.5c0,1.1,0.1,1.8,0.4,2.2c0.3,0.4,0.8,0.6,1.4,0.6c0.6,0,1.1-0.2,1.4-0.7c0.3-0.4,0.5-1.2,0.5-2.2
				v-0.9h3.2v0.8c0,1.1-0.2,2-0.5,2.8c-0.3,0.8-0.8,1.5-1.6,2c-0.7,0.5-1.7,0.7-3,0.7c-1.9,0-3.2-0.5-4-1.5c-0.8-1-1.1-2.3-1.1-4v-6
				c0-1.9,0.4-3.3,1.3-4.3c0.9-0.9,2.1-1.4,3.9-1.4c1,0,1.9,0.2,2.7,0.6c0.7,0.4,1.3,1,1.7,1.7c0.4,0.7,0.6,1.6,0.6,2.6v0.8H754.5z"
				/>
			<path class="st2" d="M760.2,166.6h3.5l2.5,8.8l2.5-8.8h3.4l-4.5,13.4c-0.3,0.8-0.6,1.5-0.9,2c-0.3,0.5-0.7,0.9-1.1,1.1
				c-0.4,0.2-0.9,0.3-1.4,0.3c-0.7,0-1.3-0.1-1.9-0.3v-2.4c0.1,0,0.1,0,0.2,0.1c0.1,0,0.2,0.1,0.3,0.1c0.1,0,0.2,0,0.3,0
				c0.6,0,1.1-0.4,1.4-1.2L760.2,166.6z"/>
			<path class="st2" d="M773.8,183.1l4.2-16.5h4.2l3.7,16.5h-3.4l-0.8-4.3h-3.5l-1,4.3H773.8z M778.6,176.3h2.8l-1.3-7.7
				L778.6,176.3z"/>
			<path class="st2" d="M788.6,183.1v-16.5h5.9c0.9,0,1.6,0.2,2.3,0.6s1.2,1,1.5,1.7c0.4,0.7,0.5,1.5,0.5,2.4c0,0.9-0.2,1.7-0.5,2.5
				c-0.4,0.8-0.9,1.4-1.6,1.8c-0.7,0.4-1.4,0.7-2.3,0.7h-2.7v6.7H788.6z M793.3,169h-1.6v4.9h1.6c1.6,0,2.3-0.8,2.3-2.5
				C795.6,169.8,794.8,169,793.3,169z"/>
			<path class="st2" d="M802.2,166.6h3.1v6.6h2.6c0.6,0,1.2,0.1,1.7,0.4c0.5,0.3,1,0.6,1.3,1c0.4,0.4,0.7,0.9,0.9,1.5
				c0.2,0.6,0.3,1.1,0.3,1.7c0,1.6-0.3,2.9-1,3.9c-0.7,1-1.7,1.4-2.9,1.4h-6V166.6z M805.4,175.6v5.1h1.8c0.6,0,1.1-0.2,1.4-0.6
				c0.3-0.4,0.5-1.1,0.5-2c0-0.8-0.2-1.4-0.5-1.9c-0.3-0.4-0.8-0.7-1.4-0.7H805.4z M814.6,183.1v-16.5h3.1v16.5H814.6z"/>
		</g>
		<path class="st2" d="M542.6,174.8c0,1.1-0.9,2.1-2.1,2.1s-2.1-0.9-2.1-2.1s0.9-2.1,2.1-2.1S542.6,173.7,542.6,174.8z"/>
		<path class="st2" d="M671.5,174.8c0,1.1-0.9,2.1-2.1,2.1c-1.1,0-2.1-0.9-2.1-2.1s0.9-2.1,2.1-2.1
			C670.6,172.8,671.5,173.7,671.5,174.8z"/>
	</g>
</g>
</svg>
