<?xml version="1.0" encoding="utf-8"?>
<!-- Generator: Adobe Illustrator 22.0.1, SVG Export Plug-In . SVG Version: 6.00 Build 0)  -->
<svg version="1.1" id="Слой_1" xmlns="http://www.w3.org/2000/svg" xmlns:xlink="http://www.w3.org/1999/xlink" x="0px" y="0px"
	 viewBox="0 0 512 512" style="enable-background:new 0 0 512 512;" xml:space="preserve">
<path d="M433.7,392.6c14-12.9,79.4-76,78.3-168.9C510.6,107.9,406.9,0,290.6,0c-64.6,0-126.4,29.8-169,80.6H51.1
	C22.9,80.6,0,103.4,0,131.4C0,329,185.4,513.1,382.8,513.1c28,0,50.8-22.9,50.8-51.1c0-17,0-34.1,0-51.1
	C433.7,404.8,433.7,398.7,433.7,392.6z M273.6,34.9v35.5h34.1V34.8c89.8,8.2,161.5,80.9,169.5,171.8h-33.3v34h33.3
	c-4.7,51.7-30.9,99.5-72.3,131.4l-92.7-31l-50.3,33.5c-45.9-21.9-100.4-76.4-122.2-122.2l33.5-50.3l-31-92.7
	C174.9,66.8,222.6,39.8,273.6,34.9z M399.6,462c0,9.5-7.4,17-16.8,17c-179.3,0-348.8-168.9-348.8-347.6c0-9.4,7.5-16.8,17-16.8h57
	l27.5,82.4l-34.4,51.6l3.3,8.3c23.4,58.5,93.7,129.1,152.8,152.8l8.3,3.3l51.6-34.4l82.4,27.5V462z"/>
<path d="M290.6,274.7c22.2,0,41.1-14.2,48.2-34.1h37v-34.1h-37c-5.1-14.5-16.6-26-31.1-31.1v-71h-34.1v71c-19.8,7-34.1,26-34.1,48.2
	C239.5,251.8,262.5,274.7,290.6,274.7z M290.6,206.6c9.4,0,17,7.6,17,17s-7.6,17-17,17s-17-7.6-17-17S281.2,206.6,290.6,206.6z"/>
</svg>
