<?xml version="1.0" encoding="iso-8859-1"?>
<!-- Generator: Adobe Illustrator 19.0.0, SVG Export Plug-In . SVG Version: 6.00 Build 0)  -->
<svg version="1.1" id="Capa_1" xmlns="http://www.w3.org/2000/svg" xmlns:xlink="http://www.w3.org/1999/xlink" x="0px" y="0px"
	 viewBox="0 0 512 512" style="enable-background:new 0 0 512 512;" xml:space="preserve">
<g>
	<g>
		<path d="M467,0H45C20.187,0,0,20.187,0,45v320c0,24.813,20.187,45,45,45h123.651l-23.53,72H96c-8.284,0-15,6.716-15,15
			s6.716,15,15,15c5.539,0,316.393,0,320,0c8.284,0,15-6.716,15-15s-6.716-15-15-15h-49.121l-23.53-72H467c24.813,0,45-20.187,45-45
			V45C512,20.187,491.813,0,467,0z M176.683,482l23.53-72h111.575l23.529,72H176.683z M482,365c0,8.271-6.729,15-15,15
			c-17.305,0-404.683,0-422,0c-8.271,0-15-6.729-15-15v-38h452V365z M482,297H30V45c0-8.271,6.729-15,15-15h422
			c8.271,0,15,6.729,15,15V297z"/>
	</g>
</g>
<g>
	<g>
		<circle cx="256" cy="354" r="15"/>
	</g>
</g>
<g>
</g>
<g>
</g>
<g>
</g>
<g>
</g>
<g>
</g>
<g>
</g>
<g>
</g>
<g>
</g>
<g>
</g>
<g>
</g>
<g>
</g>
<g>
</g>
<g>
</g>
<g>
</g>
<g>
</g>
</svg>
